<?xml version="1.0" standalone="no"?>
<!DOCTYPE svg PUBLIC "-//W3C//DTD SVG 20010904//EN"
 "http://www.w3.org/TR/2001/REC-SVG-20010904/DTD/svg10.dtd">
<svg version="1.0" xmlns="http://www.w3.org/2000/svg"
 width="500.000000pt" height="500.000000pt" viewBox="0 0 500.000000 500.000000"
 preserveAspectRatio="xMidYMid meet">
<metadata>
Created by potrace 1.11, written by Peter Selinger 2001-2013
</metadata>
<g transform="translate(0.000000,500.000000) scale(0.100000,-0.100000)"
fill="#000000" stroke="none">
<path d="M1387 3833 c-4 -3 -7 -548 -7 -1210 l0 -1203 310 0 310 0 0 470 0
470 500 0 500 0 0 -470 0 -470 310 0 310 0 0 1210 0 1210 -307 -2 -308 -3 -3
-497 -2 -498 -500 0 -500 0 0 500 0 500 -303 0 c-167 0 -307 -3 -310 -7z"/>
</g>
</svg>
